STARTFONT 2.1
FONT -Adobe-ITC Lubalin Graph-Demi-O-Normal--12-120-75-75-P-74-ISO8859-1
SIZE 12 75 75
FONTBOUNDINGBOX 16 15 -1 -3

STARTPROPERTIES 30
FOUNDRY "Adobe"
FAMILY_NAME "ITC Lubalin Graph"
WEIGHT_NAME "Demi"
SLANT "O"
SETWIDTH_NAME "Normal"
ADD_STYLE_NAME ""
PIXEL_SIZE 12
POINT_SIZE 120
RESOLUTION_X 75
RESOLUTION_Y 75
SPACING "P"
AVERAGE_WIDTH 74
CHARSET_REGISTRY "ISO8859"
CHARSET_ENCODING "1"
CAP_HEIGHT 9
X_HEIGHT 7
FACE_NAME "ITC LubalinGraph Demi Oblique"
COPYRIGHT "Copyright (c) 1984, 1987 Adobe Systems Incorporated. All Rights Reserved. Copyright (c) 1988, 1991 Digital Equipment Corporation. All Rights Reserved."
NOTICE "ITC Lubalin Graph is a registered trademark of International Typeface Corporation."
_DEC_DEVICE_FONTNAMES "PS=LubalinGraph-DemiOblique"
_DEC_PRODUCTINFO "DECwindows Fonts V2.2, 07-Nov-1991"
RELATIVE_SETWIDTH 50
RELATIVE_WEIGHT 60
CHARSET_COLLECTIONS "ASCII ISO8859-1 ADOBE-STANDARD"
FULL_NAME "ITC Lubalin Graph Demi Oblique"
WEIGHT 10
QUAD_WIDTH 8
DEFAULT_CHAR 32
FONT_DESCENT 3
FONT_ASCENT 11
ENDPROPERTIES

CHARS 191

STARTCHAR space
ENCODING 32
SWIDTH 300 0
DWIDTH 4 0
BBX 1 1 0 0
BITMAP
00
ENDCHAR

STARTCHAR exclam
ENCODING 33
SWIDTH 200 0
DWIDTH 4 0
BBX 4 9 0 0
BITMAP
30
30
20
60
60
40
00
C0
C0
ENDCHAR

STARTCHAR quotedbl
ENCODING 34
SWIDTH 400 0
DWIDTH 5 0
BBX 3 3 1 6
BITMAP
A0
A0
A0
ENDCHAR

STARTCHAR numbersign
ENCODING 35
SWIDTH 660 0
DWIDTH 8 0
BBX 7 9 0 0
BITMAP
14
14
7E
28
28
FC
50
50
50
ENDCHAR

STARTCHAR dollar
ENCODING 36
SWIDTH 580 0
DWIDTH 7 0
BBX 6 12 0 -2
BITMAP
18
18
3C
6C
64
70
18
CC
CC
F8
60
60
ENDCHAR

STARTCHAR percent
ENCODING 37
SWIDTH 860 0
DWIDTH 11 0
BBX 9 9 1 0
BITMAP
6100
F300
9600
F400
6B00
1780
3480
6780
4300
ENDCHAR

STARTCHAR ampersand
ENCODING 38
SWIDTH 720 0
DWIDTH 9 0
BBX 8 9 0 0
BITMAP
1C
3E
36
1C
7B
EE
CC
FF
76
ENDCHAR

STARTCHAR quoteright
ENCODING 39
SWIDTH 200 0
DWIDTH 4 0
BBX 2 4 2 5
BITMAP
C0
C0
40
80
ENDCHAR

STARTCHAR parenleft
ENCODING 40
SWIDTH 360 0
DWIDTH 5 0
BBX 5 11 1 -2
BITMAP
18
30
60
40
C0
C0
C0
C0
40
60
30
ENDCHAR

STARTCHAR parenright
ENCODING 41
SWIDTH 360 0
DWIDTH 5 0
BBX 5 11 -1 -2
BITMAP
20
30
10
18
18
18
18
30
30
60
80
ENDCHAR

STARTCHAR asterisk
ENCODING 42
SWIDTH 360 0
DWIDTH 5 0
BBX 5 5 0 4
BITMAP
20
F8
70
F8
20
ENDCHAR

STARTCHAR plus
ENCODING 43
SWIDTH 660 0
DWIDTH 8 0
BBX 7 7 0 0
BITMAP
08
08
10
FE
10
20
20
ENDCHAR

STARTCHAR comma
ENCODING 44
SWIDTH 300 0
DWIDTH 4 0
BBX 2 4 0 -2
BITMAP
C0
C0
40
80
ENDCHAR

STARTCHAR minus
ENCODING 45
SWIDTH 660 0
DWIDTH 8 0
BBX 6 1 1 3
BITMAP
FC
ENDCHAR

STARTCHAR period
ENCODING 46
SWIDTH 300 0
DWIDTH 4 0
BBX 2 2 0 0
BITMAP
C0
C0
ENDCHAR

STARTCHAR slash
ENCODING 47
SWIDTH 580 0
DWIDTH 7 0
BBX 8 10 -1 -1
BITMAP
01
02
04
04
08
10
20
20
40
80
ENDCHAR

STARTCHAR zero
ENCODING 48
SWIDTH 580 0
DWIDTH 7 0
BBX 6 9 0 0
BITMAP
18
7C
4C
CC
CC
CC
C8
F8
60
ENDCHAR

STARTCHAR one
ENCODING 49
SWIDTH 580 0
DWIDTH 7 0
BBX 4 9 1 0
BITMAP
70
70
30
30
20
60
60
F0
F0
ENDCHAR

STARTCHAR two
ENCODING 50
SWIDTH 580 0
DWIDTH 7 0
BBX 7 9 -1 0
BITMAP
3C
7E
66
06
0C
30
64
FC
FC
ENDCHAR

STARTCHAR three
ENCODING 51
SWIDTH 580 0
DWIDTH 7 0
BBX 7 9 -1 0
BITMAP
3C
7E
66
0C
38
0C
CC
FC
78
ENDCHAR

STARTCHAR four
ENCODING 52
SWIDTH 580 0
DWIDTH 7 0
BBX 7 9 0 0
BITMAP
04
0C
1C
3C
6C
C8
FE
18
3C
ENDCHAR

STARTCHAR five
ENCODING 53
SWIDTH 580 0
DWIDTH 7 0
BBX 6 9 0 0
BITMAP
3C
3C
20
78
4C
0C
CC
F8
70
ENDCHAR

STARTCHAR six
ENCODING 54
SWIDTH 580 0
DWIDTH 7 0
BBX 6 9 0 0
BITMAP
0C
18
30
78
CC
CC
CC
FC
78
ENDCHAR

STARTCHAR seven
ENCODING 55
SWIDTH 580 0
DWIDTH 7 0
BBX 6 9 0 0
BITMAP
FC
FC
8C
18
30
30
60
E0
C0
ENDCHAR

STARTCHAR eight
ENCODING 56
SWIDTH 580 0
DWIDTH 7 0
BBX 7 9 0 0
BITMAP
3C
66
66
2C
78
CC
CC
CC
70
ENDCHAR

STARTCHAR nine
ENCODING 57
SWIDTH 580 0
DWIDTH 7 0
BBX 6 9 0 0
BITMAP
38
7C
CC
CC
CC
78
30
60
C0
ENDCHAR

STARTCHAR colon
ENCODING 58
SWIDTH 300 0
DWIDTH 4 0
BBX 3 7 0 0
BITMAP
60
60
00
00
00
C0
C0
ENDCHAR

STARTCHAR semicolon
ENCODING 59
SWIDTH 300 0
DWIDTH 4 0
BBX 4 9 -1 -2
BITMAP
30
30
00
00
00
60
60
40
80
ENDCHAR

STARTCHAR less
ENCODING 60
SWIDTH 660 0
DWIDTH 8 0
BBX 7 7 0 0
BITMAP
06
1C
70
C0
60
18
0C
ENDCHAR

STARTCHAR equal
ENCODING 61
SWIDTH 660 0
DWIDTH 8 0
BBX 6 3 0 2
BITMAP
7C
00
F8
ENDCHAR

STARTCHAR greater
ENCODING 62
SWIDTH 660 0
DWIDTH 8 0
BBX 7 7 0 0
BITMAP
60
30
0C
06
1C
70
C0
ENDCHAR

STARTCHAR question
ENCODING 63
SWIDTH 540 0
DWIDTH 8 0
BBX 6 9 2 0
BITMAP
78
CC
CC
18
30
60
00
C0
C0
ENDCHAR

STARTCHAR at
ENCODING 64
SWIDTH 880 0
DWIDTH 11 0
BBX 10 9 0 0
BITMAP
0F00
3080
4F40
5240
A240
A480
9B00
4000
3C00
ENDCHAR

STARTCHAR A
ENCODING 65
SWIDTH 780 0
DWIDTH 9 0
BBX 9 9 0 0
BITMAP
1E00
1E00
0E00
1A00
3300
3F00
7F00
E300
E780
ENDCHAR

STARTCHAR B
ENCODING 66
SWIDTH 600 0
DWIDTH 8 0
BBX 8 9 0 0
BITMAP
7E
7F
33
3F
3C
66
66
FE
FC
ENDCHAR

STARTCHAR C
ENCODING 67
SWIDTH 760 0
DWIDTH 9 0
BBX 9 9 0 0
BITMAP
1D80
3F80
7180
E000
C000
C000
E300
7F00
7C00
ENDCHAR

STARTCHAR D
ENCODING 68
SWIDTH 740 0
DWIDTH 9 0
BBX 9 9 0 0
BITMAP
7E00
7F00
3380
3180
6300
6300
6700
FE00
F800
ENDCHAR

STARTCHAR E
ENCODING 69
SWIDTH 580 0
DWIDTH 8 0
BBX 8 9 0 0
BITMAP
7F
7F
33
30
7C
60
66
FE
FC
ENDCHAR

STARTCHAR F
ENCODING 70
SWIDTH 580 0
DWIDTH 8 0
BBX 8 9 0 0
BITMAP
7F
7F
33
30
7C
60
60
F0
F0
ENDCHAR

STARTCHAR G
ENCODING 71
SWIDTH 780 0
DWIDTH 9 0
BBX 9 9 0 0
BITMAP
1D80
3F80
7180
6000
CF00
CF00
E300
7F00
7A00
ENDCHAR

STARTCHAR H
ENCODING 72
SWIDTH 740 0
DWIDTH 9 0
BBX 9 9 0 0
BITMAP
7380
7380
3300
3F00
7E00
6200
6600
E700
E700
ENDCHAR

STARTCHAR I
ENCODING 73
SWIDTH 340 0
DWIDTH 5 0
BBX 5 9 0 0
BITMAP
78
78
30
30
60
60
60
F0
F0
ENDCHAR

STARTCHAR J
ENCODING 74
SWIDTH 540 0
DWIDTH 6 0
BBX 7 9 0 0
BITMAP
1E
1E
0C
0C
08
18
D8
F8
70
ENDCHAR

STARTCHAR K
ENCODING 75
SWIDTH 720 0
DWIDTH 9 0
BBX 9 9 0 0
BITMAP
7380
7380
3600
3C00
7800
7C00
6E00
E700
EF00
ENDCHAR

STARTCHAR L
ENCODING 76
SWIDTH 560 0
DWIDTH 7 0
BBX 7 9 0 0
BITMAP
78
78
30
30
60
60
66
FE
FC
ENDCHAR

STARTCHAR M
ENCODING 77
SWIDTH 960 0
DWIDTH 11 0
BBX 11 9 0 0
BITMAP
70E0
70E0
39C0
3BC0
76C0
6480
6D80
ED80
DBC0
ENDCHAR

STARTCHAR N
ENCODING 78
SWIDTH 800 0
DWIDTH 9 0
BBX 10 9 0 0
BITMAP
71C0
79C0
3980
3D80
6D00
6F00
6700
E600
E600
ENDCHAR

STARTCHAR O
ENCODING 79
SWIDTH 780 0
DWIDTH 10 0
BBX 10 9 0 0
BITMAP
0F00
3F80
71C0
60C0
C0C0
C180
E380
7F00
3C00
ENDCHAR

STARTCHAR P
ENCODING 80
SWIDTH 600 0
DWIDTH 8 0
BBX 8 9 0 0
BITMAP
7E
7F
33
33
3E
7C
60
F0
F0
ENDCHAR

STARTCHAR Q
ENCODING 81
SWIDTH 860 0
DWIDTH 10 0
BBX 10 9 0 0
BITMAP
0F00
3F80
71C0
60C0
F8C0
FD80
C780
7FC0
3DC0
ENDCHAR

STARTCHAR R
ENCODING 82
SWIDTH 640 0
DWIDTH 8 0
BBX 8 9 0 0
BITMAP
7E
7F
33
33
7E
6C
6E
E6
E6
ENDCHAR

STARTCHAR S
ENCODING 83
SWIDTH 520 0
DWIDTH 7 0
BBX 7 9 0 0
BITMAP
36
7E
66
70
38
1C
CC
FC
B0
ENDCHAR

STARTCHAR T
ENCODING 84
SWIDTH 600 0
DWIDTH 7 0
BBX 6 9 1 0
BITMAP
FC
FC
B4
30
60
60
60
F0
F0
ENDCHAR

STARTCHAR U
ENCODING 85
SWIDTH 700 0
DWIDTH 9 0
BBX 8 9 1 0
BITMAP
E7
E7
66
66
C6
CC
CC
FC
78
ENDCHAR

STARTCHAR V
ENCODING 86
SWIDTH 740 0
DWIDTH 8 0
BBX 8 9 0 0
BITMAP
E7
E7
66
6C
6C
38
38
30
30
ENDCHAR

STARTCHAR W
ENCODING 87
SWIDTH 1020 0
DWIDTH 11 0
BBX 10 9 1 0
BITMAP
EDC0
EDC0
CCC0
C980
DB80
FF00
7600
6600
4400
ENDCHAR

STARTCHAR X
ENCODING 88
SWIDTH 740 0
DWIDTH 8 0
BBX 8 9 0 0
BITMAP
73
77
36
3C
18
3C
6C
EE
CE
ENDCHAR

STARTCHAR Y
ENCODING 89
SWIDTH 680 0
DWIDTH 9 0
BBX 8 9 1 0
BITMAP
E7
E7
66
7C
38
30
30
78
78
ENDCHAR

STARTCHAR Z
ENCODING 90
SWIDTH 560 0
DWIDTH 7 0
BBX 7 9 0 0
BITMAP
3E
7E
6C
18
30
30
6C
FC
F8
ENDCHAR

STARTCHAR bracketleft
ENCODING 91
SWIDTH 380 0
DWIDTH 5 0
BBX 5 11 0 -2
BITMAP
38
38
20
20
60
60
60
40
C0
E0
E0
ENDCHAR

STARTCHAR backslash
ENCODING 92
SWIDTH 620 0
DWIDTH 8 0
BBX 3 9 3 0
BITMAP
80
80
C0
40
40
60
20
20
20
ENDCHAR

STARTCHAR bracketright
ENCODING 93
SWIDTH 380 0
DWIDTH 6 0
BBX 5 11 0 -2
BITMAP
38
38
18
10
30
30
30
20
20
E0
E0
ENDCHAR

STARTCHAR asciicircum
ENCODING 94
SWIDTH 660 0
DWIDTH 8 0
BBX 7 7 0 2
BITMAP
04
0C
14
24
22
42
82
ENDCHAR

STARTCHAR underscore
ENCODING 95
SWIDTH 500 0
DWIDTH 7 0
BBX 7 1 0 -2
BITMAP
FE
ENDCHAR

STARTCHAR quoteleft
ENCODING 96
SWIDTH 200 0
DWIDTH 4 0
BBX 2 4 1 5
BITMAP
40
80
C0
C0
ENDCHAR

STARTCHAR a
ENCODING 97
SWIDTH 660 0
DWIDTH 8 0
BBX 8 7 0 0
BITMAP
3B
7F
C6
C6
C4
7E
76
ENDCHAR

STARTCHAR b
ENCODING 98
SWIDTH 660 0
DWIDTH 8 0
BBX 8 9 0 0
BITMAP
70
70
36
3F
63
63
63
FE
DC
ENDCHAR

STARTCHAR c
ENCODING 99
SWIDTH 580 0
DWIDTH 7 0
BBX 7 7 0 0
BITMAP
3C
7E
C6
C0
C6
7C
78
ENDCHAR

STARTCHAR d
ENCODING 100
SWIDTH 660 0
DWIDTH 8 0
BBX 8 9 0 0
BITMAP
07
07
3B
7F
C2
C6
C6
7E
76
ENDCHAR

STARTCHAR e
ENCODING 101
SWIDTH 580 0
DWIDTH 7 0
BBX 7 7 0 0
BITMAP
3C
7E
C6
FE
C0
7C
78
ENDCHAR

STARTCHAR f
ENCODING 102
SWIDTH 320 0
DWIDTH 4 0
BBX 6 9 0 0
BITMAP
1C
30
78
30
20
60
60
F0
F0
ENDCHAR

STARTCHAR g
ENCODING 103
SWIDTH 660 0
DWIDTH 8 0
BBX 8 10 0 -3
BITMAP
3B
7F
C6
C6
C6
7E
7C
0C
F8
F0
ENDCHAR

STARTCHAR h
ENCODING 104
SWIDTH 640 0
DWIDTH 8 0
BBX 8 9 0 0
BITMAP
70
70
36
3F
33
63
66
E6
E6
ENDCHAR

STARTCHAR i
ENCODING 105
SWIDTH 300 0
DWIDTH 5 0
BBX 5 9 0 0
BITMAP
18
00
70
70
30
60
60
F0
F0
ENDCHAR

STARTCHAR j
ENCODING 106
SWIDTH 280 0
DWIDTH 4 0
BBX 5 12 -1 -3
BITMAP
18
00
38
38
18
30
30
30
30
60
60
C0
ENDCHAR

STARTCHAR k
ENCODING 107
SWIDTH 600 0
DWIDTH 7 0
BBX 8 9 0 0
BITMAP
70
70
37
36
38
78
6C
EE
CE
ENDCHAR

STARTCHAR l
ENCODING 108
SWIDTH 300 0
DWIDTH 4 0
BBX 4 9 0 0
BITMAP
70
70
30
30
20
60
60
F0
F0
ENDCHAR

STARTCHAR m
ENCODING 109
SWIDTH 980 0
DWIDTH 12 0
BBX 11 7 1 0
BITMAP
D9C0
FFE0
6660
4440
CCC0
CCC0
CCC0
ENDCHAR

STARTCHAR n
ENCODING 110
SWIDTH 640 0
DWIDTH 8 0
BBX 7 7 1 0
BITMAP
EC
FE
66
44
CC
CC
CC
ENDCHAR

STARTCHAR o
ENCODING 111
SWIDTH 580 0
DWIDTH 7 0
BBX 7 7 0 0
BITMAP
3C
7E
C6
C6
C6
7C
78
ENDCHAR

STARTCHAR p
ENCODING 112
SWIDTH 660 0
DWIDTH 8 0
BBX 9 10 -1 -3
BITMAP
6F00
7F80
3180
3180
3180
3F00
6E00
6000
F000
F000
ENDCHAR

STARTCHAR q
ENCODING 113
SWIDTH 660 0
DWIDTH 8 0
BBX 8 10 0 -3
BITMAP
3B
7F
C6
C6
C6
7C
3C
0C
1C
1C
ENDCHAR

STARTCHAR r
ENCODING 114
SWIDTH 380 0
DWIDTH 5 0
BBX 6 7 0 0
BITMAP
6C
7C
30
60
60
F0
F0
ENDCHAR

STARTCHAR s
ENCODING 115
SWIDTH 460 0
DWIDTH 6 0
BBX 6 7 0 0
BITMAP
3C
6C
70
38
D8
D8
F0
ENDCHAR

STARTCHAR t
ENCODING 116
SWIDTH 340 0
DWIDTH 5 0
BBX 5 9 1 0
BITMAP
30
30
F8
60
60
60
C0
F0
F0
ENDCHAR

STARTCHAR u
ENCODING 117
SWIDTH 640 0
DWIDTH 8 0
BBX 8 7 0 0
BITMAP
77
77
66
44
CC
FE
76
ENDCHAR

STARTCHAR v
ENCODING 118
SWIDTH 600 0
DWIDTH 8 0
BBX 8 7 0 0
BITMAP
E7
E7
6E
6C
38
30
30
ENDCHAR

STARTCHAR w
ENCODING 119
SWIDTH 880 0
DWIDTH 11 0
BBX 11 7 0 0
BITMAP
F6E0
E6E0
64C0
6C80
3F80
3300
3300
ENDCHAR

STARTCHAR x
ENCODING 120
SWIDTH 620 0
DWIDTH 7 0
BBX 7 7 0 0
BITMAP
66
6E
38
38
38
EC
CC
ENDCHAR

STARTCHAR y
ENCODING 121
SWIDTH 600 0
DWIDTH 8 0
BBX 8 10 1 -3
BITMAP
F7
F7
66
6C
38
30
30
60
E0
E0
ENDCHAR

STARTCHAR z
ENCODING 122
SWIDTH 460 0
DWIDTH 6 0
BBX 6 7 0 0
BITMAP
7C
6C
58
30
68
E8
F8
ENDCHAR

STARTCHAR braceleft
ENCODING 123
SWIDTH 320 0
DWIDTH 5 0
BBX 5 11 0 -2
BITMAP
18
30
30
20
C0
60
60
60
C0
C0
60
ENDCHAR

STARTCHAR bar
ENCODING 124
SWIDTH 660 0
DWIDTH 8 0
BBX 2 9 3 0
BITMAP
40
40
40
40
80
80
80
80
80
ENDCHAR

STARTCHAR braceright
ENCODING 125
SWIDTH 320 0
DWIDTH 5 0
BBX 5 11 -1 -2
BITMAP
30
18
18
30
30
18
10
30
30
20
C0
ENDCHAR

STARTCHAR asciitilde
ENCODING 126
SWIDTH 660 0
DWIDTH 9 0
BBX 7 2 1 3
BITMAP
72
9C
ENDCHAR

STARTCHAR space
ENCODING 160
SWIDTH 300 0
DWIDTH 4 0
BBX 1 1 0 0
BITMAP
00
ENDCHAR

STARTCHAR exclamdown
ENCODING 161
SWIDTH 200 0
DWIDTH 4 0
BBX 4 10 0 -3
BITMAP
30
30
00
20
20
60
40
40
C0
C0
ENDCHAR

STARTCHAR cent
ENCODING 162
SWIDTH 580 0
DWIDTH 7 0
BBX 6 9 0 0
BITMAP
18
18
3C
64
C0
EC
78
30
30
ENDCHAR

STARTCHAR sterling
ENCODING 163
SWIDTH 680 0
DWIDTH 8 0
BBX 7 9 0 0
BITMAP
36
7E
62
30
78
30
36
E6
FC
ENDCHAR

STARTCHAR currency
ENCODING 164
SWIDTH 580 0
DWIDTH 7 0
BBX 7 7 0 1
BITMAP
24
7E
2C
44
68
FC
48
ENDCHAR

STARTCHAR yen
ENCODING 165
SWIDTH 720 0
DWIDTH 9 0
BBX 8 9 1 0
BITMAP
E7
E7
6C
EE
38
FC
30
70
70
ENDCHAR

STARTCHAR brokenbar
ENCODING 166
SWIDTH 660 0
DWIDTH 8 0
BBX 2 9 3 0
BITMAP
40
40
40
00
00
80
80
80
80
ENDCHAR

STARTCHAR section
ENCODING 167
SWIDTH 460 0
DWIDTH 6 0
BBX 6 11 0 -2
BITMAP
38
7C
64
30
78
48
78
30
98
F8
70
ENDCHAR

STARTCHAR dieresis
ENCODING 168
SWIDTH 460 0
DWIDTH 6 0
BBX 3 2 2 8
BITMAP
A0
A0
ENDCHAR

STARTCHAR copyright
ENCODING 169
SWIDTH 820 0
DWIDTH 11 0
BBX 10 9 0 0
BITMAP
0F00
3080
4E40
5140
A040
A280
9C80
4300
3C00
ENDCHAR

STARTCHAR ordfeminine
ENCODING 170
SWIDTH 420 0
DWIDTH 5 0
BBX 5 6 0 3
BITMAP
38
50
50
28
00
F0
ENDCHAR

STARTCHAR guillemotleft
ENCODING 171
SWIDTH 360 0
DWIDTH 7 0
BBX 6 5 1 1
BITMAP
24
48
90
90
48
ENDCHAR

STARTCHAR logicalnot
ENCODING 172
SWIDTH 660 0
DWIDTH 8 0
BBX 6 4 1 1
BITMAP
FC
04
08
08
ENDCHAR

STARTCHAR hyphen
ENCODING 173
SWIDTH 320 0
DWIDTH 4 0
BBX 4 2 0 2
BITMAP
F0
F0
ENDCHAR

STARTCHAR registered
ENCODING 174
SWIDTH 820 0
DWIDTH 11 0
BBX 10 9 0 0
BITMAP
0F00
3080
4F40
5140
9EC0
A480
A280
4300
3C00
ENDCHAR

STARTCHAR macron
ENCODING 175
SWIDTH 520 0
DWIDTH 7 0
BBX 4 1 2 8
BITMAP
F0
ENDCHAR

STARTCHAR degree
ENCODING 176
SWIDTH 400 0
DWIDTH 5 0
BBX 4 4 1 5
BITMAP
60
90
90
60
ENDCHAR

STARTCHAR plusminus
ENCODING 177
SWIDTH 660 0
DWIDTH 8 0
BBX 7 7 0 0
BITMAP
08
08
7E
10
10
00
FC
ENDCHAR

STARTCHAR twosuperior
ENCODING 178
SWIDTH 348 0
DWIDTH 4 0
BBX 4 5 1 4
BITMAP
70
B0
60
C0
F0
ENDCHAR

STARTCHAR threesuperior
ENCODING 179
SWIDTH 348 0
DWIDTH 4 0
BBX 4 5 1 4
BITMAP
F0
30
60
30
E0
ENDCHAR

STARTCHAR acute
ENCODING 180
SWIDTH 460 0
DWIDTH 6 0
BBX 3 2 3 8
BITMAP
60
80
ENDCHAR

STARTCHAR mu
ENCODING 181
SWIDTH 640 0
DWIDTH 8 0
BBX 9 10 -1 -3
BITMAP
3B80
3B80
3300
2200
6600
7F00
7B00
C000
C000
C000
ENDCHAR

STARTCHAR paragraph
ENCODING 182
SWIDTH 540 0
DWIDTH 8 0
BBX 7 11 1 -2
BITMAP
7E
F4
F4
E8
68
28
28
28
50
50
50
ENDCHAR

STARTCHAR periodcentered
ENCODING 183
SWIDTH 300 0
DWIDTH 4 0
BBX 2 2 1 3
BITMAP
C0
C0
ENDCHAR

STARTCHAR cedilla
ENCODING 184
SWIDTH 360 0
DWIDTH 5 0
BBX 4 3 0 -3
BITMAP
20
B0
60
ENDCHAR

STARTCHAR onesuperior
ENCODING 185
SWIDTH 348 0
DWIDTH 4 0
BBX 3 5 0 4
BITMAP
60
20
40
40
E0
ENDCHAR

STARTCHAR ordmasculine
ENCODING 186
SWIDTH 360 0
DWIDTH 5 0
BBX 4 6 1 3
BITMAP
20
50
50
20
00
E0
ENDCHAR

STARTCHAR guillemotright
ENCODING 187
SWIDTH 360 0
DWIDTH 7 0
BBX 6 5 0 1
BITMAP
48
24
24
48
90
ENDCHAR

STARTCHAR onequarter
ENCODING 188
SWIDTH 870 0
DWIDTH 10 0
BBX 9 9 1 0
BITMAP
6200
2600
4400
4C00
E900
1B00
3500
2F80
6200
ENDCHAR

STARTCHAR onehalf
ENCODING 189
SWIDTH 870 0
DWIDTH 10 0
BBX 9 9 1 0
BITMAP
6200
2600
4400
4C00
EB80
1D80
3300
2600
6780
ENDCHAR

STARTCHAR threequarters
ENCODING 190
SWIDTH 870 0
DWIDTH 10 0
BBX 9 9 1 0
BITMAP
F200
3600
6400
3C00
E900
1B00
3500
2F80
6200
ENDCHAR

STARTCHAR questiondown
ENCODING 191
SWIDTH 540 0
DWIDTH 8 0
BBX 6 9 1 -2
BITMAP
0C
0C
00
18
30
60
CC
CC
78
ENDCHAR

STARTCHAR Agrave
ENCODING 192
SWIDTH 780 0
DWIDTH 9 0
BBX 9 12 0 0
BITMAP
0C00
0600
0000
1E00
1E00
0E00
1A00
3300
3F00
7F00
E300
E780
ENDCHAR

STARTCHAR Aacute
ENCODING 193
SWIDTH 780 0
DWIDTH 9 0
BBX 9 12 0 0
BITMAP
0300
0600
0000
1E00
1E00
0E00
1A00
3300
3F00
7F00
E300
E780
ENDCHAR

STARTCHAR Acircumflex
ENCODING 194
SWIDTH 780 0
DWIDTH 9 0
BBX 9 12 0 0
BITMAP
0600
0A00
0000
1E00
1E00
0E00
1A00
3300
3F00
7F00
E300
E780
ENDCHAR

STARTCHAR Atilde
ENCODING 195
SWIDTH 780 0
DWIDTH 9 0
BBX 9 12 0 0
BITMAP
0D00
1600
0000
1E00
1E00
0E00
1A00
3300
3F00
7F00
E300
E780
ENDCHAR

STARTCHAR Adieresis
ENCODING 196
SWIDTH 780 0
DWIDTH 9 0
BBX 9 12 0 0
BITMAP
0A00
0A00
0000
1E00
1E00
0E00
1A00
3300
3F00
7F00
E300
E780
ENDCHAR

STARTCHAR Aring
ENCODING 197
SWIDTH 780 0
DWIDTH 9 0
BBX 9 12 0 0
BITMAP
0400
0A00
0400
1E00
1E00
0E00
1A00
3300
3F00
7F00
E300
E780
ENDCHAR

STARTCHAR AE
ENCODING 198
SWIDTH 980 0
DWIDTH 13 0
BBX 13 9 0 0
BITMAP
07F8
03F8
0798
0D80
19E0
3F00
7F30
E3F0
E7E0
ENDCHAR

STARTCHAR Ccedilla
ENCODING 199
SWIDTH 760 0
DWIDTH 9 0
BBX 9 12 0 -3
BITMAP
1D80
3F80
7180
E000
C000
C000
E300
7F00
7C00
0800
2C00
1800
ENDCHAR

STARTCHAR Egrave
ENCODING 200
SWIDTH 580 0
DWIDTH 8 0
BBX 8 12 0 0
BITMAP
18
0C
00
7F
7F
33
30
7C
60
66
FE
FC
ENDCHAR

STARTCHAR Eacute
ENCODING 201
SWIDTH 580 0
DWIDTH 8 0
BBX 8 12 0 0
BITMAP
06
0C
00
7F
7F
33
30
7C
60
66
FE
FC
ENDCHAR

STARTCHAR Ecircumflex
ENCODING 202
SWIDTH 580 0
DWIDTH 8 0
BBX 8 12 0 0
BITMAP
0C
14
00
7F
7F
33
30
7C
60
66
FE
FC
ENDCHAR

STARTCHAR Edieresis
ENCODING 203
SWIDTH 580 0
DWIDTH 8 0
BBX 8 12 0 0
BITMAP
12
12
00
7F
7F
33
30
7C
60
66
FE
FC
ENDCHAR

STARTCHAR Igrave
ENCODING 204
SWIDTH 340 0
DWIDTH 5 0
BBX 5 12 0 0
BITMAP
60
30
00
78
78
30
30
60
60
60
F0
F0
ENDCHAR

STARTCHAR Iacute
ENCODING 205
SWIDTH 340 0
DWIDTH 5 0
BBX 6 12 0 0
BITMAP
0C
18
00
78
78
30
30
60
60
60
F0
F0
ENDCHAR

STARTCHAR Icircumflex
ENCODING 206
SWIDTH 340 0
DWIDTH 5 0
BBX 5 12 0 0
BITMAP
18
28
00
78
78
30
30
60
60
60
F0
F0
ENDCHAR

STARTCHAR Idieresis
ENCODING 207
SWIDTH 340 0
DWIDTH 5 0
BBX 5 12 0 0
BITMAP
28
28
00
78
78
30
30
60
60
60
F0
F0
ENDCHAR

STARTCHAR Eth
ENCODING 208
SWIDTH 740 0
DWIDTH 9 0
BBX 9 9 0 0
BITMAP
7E00
7F00
3380
3180
FB00
6300
6700
FE00
F800
ENDCHAR

STARTCHAR Ntilde
ENCODING 209
SWIDTH 800 0
DWIDTH 9 0
BBX 10 12 0 0
BITMAP
0D00
1600
0000
71C0
79C0
3980
3D80
6D00
6F00
6700
E600
E600
ENDCHAR

STARTCHAR Ograve
ENCODING 210
SWIDTH 780 0
DWIDTH 10 0
BBX 10 12 0 0
BITMAP
0C00
0600
0000
0F00
3F80
71C0
60C0
C0C0
C180
E380
7F00
3C00
ENDCHAR

STARTCHAR Oacute
ENCODING 211
SWIDTH 780 0
DWIDTH 10 0
BBX 10 12 0 0
BITMAP
0300
0600
0000
0F00
3F80
71C0
60C0
C0C0
C180
E380
7F00
3C00
ENDCHAR

STARTCHAR Ocircumflex
ENCODING 212
SWIDTH 780 0
DWIDTH 10 0
BBX 10 12 0 0
BITMAP
0300
0500
0000
0F00
3F80
71C0
60C0
C0C0
C180
E380
7F00
3C00
ENDCHAR

STARTCHAR Otilde
ENCODING 213
SWIDTH 780 0
DWIDTH 10 0
BBX 10 12 0 0
BITMAP
0680
0B00
0000
0F00
3F80
71C0
60C0
C0C0
C180
E380
7F00
3C00
ENDCHAR

STARTCHAR Odieresis
ENCODING 214
SWIDTH 780 0
DWIDTH 10 0
BBX 10 12 0 0
BITMAP
0900
0900
0000
0F00
3F80
71C0
60C0
C0C0
C180
E380
7F00
3C00
ENDCHAR

STARTCHAR multiply
ENCODING 215
SWIDTH 660 0
DWIDTH 8 0
BBX 9 7 -1 0
BITMAP
6180
3300
1E00
1C00
3C00
6600
C300
ENDCHAR

STARTCHAR Oslash
ENCODING 216
SWIDTH 780 0
DWIDTH 10 0
BBX 10 9 0 0
BITMAP
0EC0
3F80
73C0
66C0
CCC0
D980
F380
7F00
DC00
ENDCHAR

STARTCHAR Ugrave
ENCODING 217
SWIDTH 700 0
DWIDTH 9 0
BBX 8 12 1 0
BITMAP
30
18
00
E7
E7
66
66
C6
CC
CC
FC
78
ENDCHAR

STARTCHAR Uacute
ENCODING 218
SWIDTH 700 0
DWIDTH 9 0
BBX 8 12 1 0
BITMAP
0C
18
00
E7
E7
66
66
C6
CC
CC
FC
78
ENDCHAR

STARTCHAR Ucircumflex
ENCODING 219
SWIDTH 700 0
DWIDTH 9 0
BBX 8 12 1 0
BITMAP
0C
14
00
E7
E7
66
66
C6
CC
CC
FC
78
ENDCHAR

STARTCHAR Udieresis
ENCODING 220
SWIDTH 700 0
DWIDTH 9 0
BBX 8 12 1 0
BITMAP
24
24
00
E7
E7
66
66
C6
CC
CC
FC
78
ENDCHAR

STARTCHAR Yacute
ENCODING 221
SWIDTH 680 0
DWIDTH 9 0
BBX 8 12 1 0
BITMAP
0C
18
00
E7
E7
66
7C
38
30
30
78
78
ENDCHAR

STARTCHAR Thorn
ENCODING 222
SWIDTH 600 0
DWIDTH 8 0
BBX 8 9 0 0
BITMAP
70
7E
3F
33
33
7E
7C
E0
F0
ENDCHAR

STARTCHAR germandbls
ENCODING 223
SWIDTH 600 0
DWIDTH 8 0
BBX 8 9 0 0
BITMAP
1E
3F
33
32
2E
63
63
EF
EC
ENDCHAR

STARTCHAR agrave
ENCODING 224
SWIDTH 660 0
DWIDTH 8 0
BBX 8 10 0 0
BITMAP
30
18
00
3B
7F
C6
C6
C4
7E
76
ENDCHAR

STARTCHAR aacute
ENCODING 225
SWIDTH 660 0
DWIDTH 8 0
BBX 8 10 0 0
BITMAP
0C
18
00
3B
7F
C6
C6
C4
7E
76
ENDCHAR

STARTCHAR acircumflex
ENCODING 226
SWIDTH 660 0
DWIDTH 8 0
BBX 8 10 0 0
BITMAP
0C
14
00
3B
7F
C6
C6
C4
7E
76
ENDCHAR

STARTCHAR atilde
ENCODING 227
SWIDTH 660 0
DWIDTH 8 0
BBX 8 10 0 0
BITMAP
1A
2C
00
3B
7F
C6
C6
C4
7E
76
ENDCHAR

STARTCHAR adieresis
ENCODING 228
SWIDTH 660 0
DWIDTH 8 0
BBX 8 10 0 0
BITMAP
14
14
00
3B
7F
C6
C6
C4
7E
76
ENDCHAR

STARTCHAR aring
ENCODING 229
SWIDTH 660 0
DWIDTH 8 0
BBX 8 10 0 0
BITMAP
08
14
08
3B
7F
C6
C6
C4
7E
76
ENDCHAR

STARTCHAR ae
ENCODING 230
SWIDTH 1040 0
DWIDTH 13 0
BBX 12 7 1 0
BITMAP
36E0
7FF0
C630
C7F0
C600
FFE0
6DC0
ENDCHAR

STARTCHAR ccedilla
ENCODING 231
SWIDTH 580 0
DWIDTH 7 0
BBX 7 10 0 -3
BITMAP
3C
7E
C6
C0
C6
7C
78
10
58
30
ENDCHAR

STARTCHAR egrave
ENCODING 232
SWIDTH 580 0
DWIDTH 7 0
BBX 7 10 0 0
BITMAP
30
18
00
3C
7E
C6
FE
C0
7C
78
ENDCHAR

STARTCHAR eacute
ENCODING 233
SWIDTH 580 0
DWIDTH 7 0
BBX 7 10 0 0
BITMAP
0C
18
00
3C
7E
C6
FE
C0
7C
78
ENDCHAR

STARTCHAR ecircumflex
ENCODING 234
SWIDTH 580 0
DWIDTH 7 0
BBX 7 10 0 0
BITMAP
18
28
00
3C
7E
C6
FE
C0
7C
78
ENDCHAR

STARTCHAR edieresis
ENCODING 235
SWIDTH 580 0
DWIDTH 7 0
BBX 7 10 0 0
BITMAP
14
14
00
3C
7E
C6
FE
C0
7C
78
ENDCHAR

STARTCHAR igrave
ENCODING 236
SWIDTH 300 0
DWIDTH 5 0
BBX 4 10 0 0
BITMAP
60
30
00
70
70
30
60
60
F0
F0
ENDCHAR

STARTCHAR iacute
ENCODING 237
SWIDTH 300 0
DWIDTH 5 0
BBX 5 10 0 0
BITMAP
18
30
00
70
70
30
60
60
F0
F0
ENDCHAR

STARTCHAR icircumflex
ENCODING 238
SWIDTH 300 0
DWIDTH 5 0
BBX 5 10 0 0
BITMAP
18
28
00
70
70
30
60
60
F0
F0
ENDCHAR

STARTCHAR idieresis
ENCODING 239
SWIDTH 300 0
DWIDTH 5 0
BBX 5 10 0 0
BITMAP
28
28
00
70
70
30
60
60
F0
F0
ENDCHAR

STARTCHAR eth
ENCODING 240
SWIDTH 580 0
DWIDTH 7 0
BBX 7 10 0 0
BITMAP
66
38
48
3C
7E
C6
C6
C6
7C
78
ENDCHAR

STARTCHAR ntilde
ENCODING 241
SWIDTH 640 0
DWIDTH 8 0
BBX 8 10 0 0
BITMAP
0D
16
00
76
7F
33
63
66
E6
E6
ENDCHAR

STARTCHAR ograve
ENCODING 242
SWIDTH 580 0
DWIDTH 7 0
BBX 7 10 0 0
BITMAP
30
18
00
3C
7E
C6
C6
C6
7C
78
ENDCHAR

STARTCHAR oacute
ENCODING 243
SWIDTH 580 0
DWIDTH 7 0
BBX 7 10 0 0
BITMAP
0C
18
00
3C
7E
C6
C6
C6
7C
78
ENDCHAR

STARTCHAR ocircumflex
ENCODING 244
SWIDTH 580 0
DWIDTH 7 0
BBX 7 10 0 0
BITMAP
0C
14
00
3C
7E
C6
C6
C6
7C
78
ENDCHAR

STARTCHAR otilde
ENCODING 245
SWIDTH 580 0
DWIDTH 7 0
BBX 7 10 0 0
BITMAP
1A
2C
00
3C
7E
C6
C6
C6
7C
78
ENDCHAR

STARTCHAR odieresis
ENCODING 246
SWIDTH 580 0
DWIDTH 7 0
BBX 7 10 0 0
BITMAP
24
24
00
3C
7E
C6
C6
C6
7C
78
ENDCHAR

STARTCHAR divide
ENCODING 247
SWIDTH 660 0
DWIDTH 8 0
BBX 7 7 0 0
BITMAP
08
08
00
FE
00
20
20
ENDCHAR

STARTCHAR oslash
ENCODING 248
SWIDTH 600 0
DWIDTH 7 0
BBX 7 7 0 0
BITMAP
3A
7C
CE
D6
E6
7C
B8
ENDCHAR

STARTCHAR ugrave
ENCODING 249
SWIDTH 640 0
DWIDTH 8 0
BBX 8 10 0 0
BITMAP
18
0C
00
77
77
66
66
CC
FE
76
ENDCHAR

STARTCHAR uacute
ENCODING 250
SWIDTH 640 0
DWIDTH 8 0
BBX 8 10 0 0
BITMAP
0C
18
00
77
77
66
66
CC
FE
76
ENDCHAR

STARTCHAR ucircumflex
ENCODING 251
SWIDTH 640 0
DWIDTH 8 0
BBX 8 10 0 0
BITMAP
0C
14
00
77
77
66
66
CC
FE
76
ENDCHAR

STARTCHAR udieresis
ENCODING 252
SWIDTH 640 0
DWIDTH 8 0
BBX 8 10 0 0
BITMAP
12
12
00
77
77
66
66
CC
FE
76
ENDCHAR

STARTCHAR yacute
ENCODING 253
SWIDTH 600 0
DWIDTH 8 0
BBX 8 13 1 -3
BITMAP
06
0C
00
F7
F7
66
6C
38
30
30
60
E0
E0
ENDCHAR

STARTCHAR thorn
ENCODING 254
SWIDTH 660 0
DWIDTH 8 0
BBX 9 12 -1 -3
BITMAP
3800
3800
1B00
1F80
3180
3180
3180
3F00
6E00
6000
F000
F000
ENDCHAR

STARTCHAR ydieresis
ENCODING 255
SWIDTH 600 0
DWIDTH 8 0
BBX 8 13 1 -3
BITMAP
14
14
00
F7
F7
66
6C
38
30
30
60
E0
E0
ENDCHAR
ENDFONT
